<svg width="320" height="273" viewBox="0 0 320 273" fill="none" xmlns="http://www.w3.org/2000/svg">
<g clip-path="url(#clip0_1_65)">
<path d="M11.6479 6H0V34.2299L11.6479 6Z" fill="#FA0C00"/>
<path d="M19.8431 6.00002H31.4758V34.2299L19.8431 6.00002Z" fill="#FA0C00"/>
<path d="M15.7455 16.4045L23.1591 34.2299H18.2951L16.0794 28.5547H10.6538L15.7455 16.4045Z" fill="#FA0C00"/>
<path d="M50.4784 23.9525L51.8519 27.9436C51.8974 28.0436 51.9657 28.0897 52.0871 28.0897H54.7278C54.872 28.0897 54.8947 28.0205 54.872 27.8744L49.4161 12.5175C49.3933 12.3945 49.3705 12.3714 49.2491 12.3714H45.971C45.88 12.3714 45.8268 12.4406 45.8268 12.5406C45.7813 13.3481 45.713 13.5941 45.6144 13.8325L40.7503 27.8513C40.7276 28.0205 40.7807 28.0897 40.9173 28.0897H43.2772C43.4214 28.0897 43.4897 28.0436 43.5428 27.8975L44.8404 23.9525H50.4784ZM45.5916 21.3456C46.3049 19.1617 47.2458 16.3625 47.6252 14.763H47.648C48.1185 16.4394 49.2263 19.7615 49.7272 21.3456H45.5916Z" fill="#FA0C00"/>
<path d="M61.8859 28.3281C63.3049 28.3281 64.8149 28.0666 66.3478 27.3976C66.4692 27.3514 66.4919 27.2976 66.4919 27.1823C66.4464 26.7516 66.3933 26.1287 66.3933 25.652V11.1948C66.3933 11.1025 66.3933 11.0564 66.2795 11.0564H63.7071C63.6084 11.0564 63.5629 11.1025 63.5629 11.2256V16.1241C63.1607 16.0779 62.88 16.0549 62.5461 16.0549C58.3953 16.0549 55.8457 18.831 55.8457 22.2991C55.8457 26.321 58.4636 28.3281 61.8859 28.3281ZM63.5629 25.652C63.138 25.7904 62.6675 25.8442 62.1894 25.8442C60.3076 25.8442 58.7672 24.7676 58.7672 22.153C58.7672 19.8383 60.3531 18.4695 62.455 18.4695C62.88 18.4695 63.2518 18.5157 63.5629 18.6387V25.652Z" fill="#FA0C00"/>
<path d="M74.6985 16.0549C71.1548 16.0549 68.9618 18.8079 68.9618 22.2069C68.9618 25.2444 70.7071 28.3281 74.6453 28.3281C77.9766 28.3281 80.3137 25.8442 80.3137 22.13C80.3137 18.8541 78.3332 16.0549 74.6985 16.0549ZM74.5543 18.4696C76.5576 18.4696 77.4074 20.2152 77.4074 22.2069C77.4074 24.6677 76.1554 25.8904 74.6985 25.8904C72.9001 25.8904 71.8377 24.3601 71.8377 22.1531C71.8377 19.8845 72.9684 18.4696 74.5543 18.4696Z" fill="#FA0C00"/>
<path d="M82.9732 11.0564C82.8746 11.0564 82.8063 11.1025 82.8063 11.2256V27.5898C82.8063 27.6591 82.8746 27.7821 82.9732 27.8052C84.1039 28.1589 85.2876 28.3281 86.5093 28.3281C90.0075 28.3281 93.407 26.1287 93.407 21.6993C93.407 18.4926 91.2368 16.0549 87.8372 16.0549C87.0557 16.0549 86.3272 16.1779 85.6898 16.3932L85.6594 11.2486C85.6594 11.0795 85.6139 11.0564 85.447 11.0564H82.9732ZM90.5007 21.9915C90.5007 24.6446 88.7099 25.8903 86.7749 25.8903C86.3727 25.8903 86.0161 25.8673 85.6898 25.7673V18.7848C86.0616 18.6387 86.5093 18.5157 87.3364 18.5157C89.2031 18.5157 90.5007 19.7153 90.5007 21.9915Z" fill="#FA0C00"/>
<path d="M103.007 22.8529C104.161 22.8529 105.109 22.8298 105.435 22.7529C105.557 22.7298 105.602 22.6837 105.625 22.5837C105.693 22.3222 105.724 21.7763 105.724 21.1072C105.724 18.831 104.373 16.0549 100.882 16.0549C97.316 16.0549 95.3354 19.0002 95.3354 22.3222C95.3354 25.2675 96.8683 28.3281 101.163 28.3281C102.772 28.3281 103.811 28.0666 104.707 27.636C104.798 27.5899 104.843 27.513 104.843 27.3746V25.3829C104.843 25.2675 104.775 25.2444 104.707 25.2906C103.811 25.6751 102.84 25.8673 101.778 25.8673C99.3724 25.8673 98.2797 24.5216 98.2114 22.8529H103.007ZM98.2114 20.7919C98.4011 19.6231 99.1295 18.3542 100.761 18.3542C102.559 18.3542 103.03 19.8845 103.03 20.5766C103.03 20.5997 103.03 20.6997 103.03 20.7689C102.931 20.7919 102.628 20.7919 101.732 20.7919H98.2114Z" fill="#FA0C00"/>
</g>
<g clip-path="url(#clip1_1_65)">
<path d="M181.11 26.6524C181.012 26.6255 179.5 26.2343 177.893 26.2343C174.85 26.2343 173.018 27.8823 173.018 30.3365C173.018 32.5089 174.551 33.5923 176.39 34.175C176.594 34.2425 176.894 34.3369 177.094 34.4033C177.913 34.6617 178.566 35.0455 178.566 35.7105C178.566 36.4541 177.811 36.9354 176.169 36.9354C174.726 36.9354 173.343 36.5215 173.052 36.4478V39.4672C173.214 39.5018 174.858 39.8256 176.614 39.8256C179.14 39.8256 182.03 38.7184 182.03 35.4224C182.03 33.8237 181.054 32.3519 178.912 31.6688L178.001 31.3779C177.458 31.2059 176.488 30.9273 176.488 30.1285C176.488 29.4974 177.206 29.0531 178.53 29.0531C179.671 29.0531 181.061 29.438 181.11 29.4534V26.6524ZM209.006 33.0301C209.006 34.9393 207.548 36.4838 205.592 36.4838C203.633 36.4838 202.179 34.9393 202.179 33.0301C202.179 31.1248 203.633 29.5796 205.592 29.5796C207.548 29.5796 209.006 31.1248 209.006 33.0301ZM205.592 26.2385C201.568 26.2385 198.683 29.2824 198.683 33.0301C198.683 36.7837 201.568 39.8256 205.592 39.8256C209.615 39.8256 212.504 36.7837 212.504 33.0301C212.504 29.2824 209.615 26.2385 205.592 26.2385ZM168.592 39.592H165.291V26.471H168.592" fill="#049FD9"/>
<path d="M160.753 26.7087C160.443 26.6164 159.297 26.2385 157.744 26.2385C153.727 26.2385 150.778 29.1115 150.778 33.0301C150.778 37.2578 154.033 39.8256 157.744 39.8256C159.218 39.8256 160.343 39.4753 160.753 39.3585V35.8363C160.611 35.9153 159.532 36.5327 157.98 36.5327C155.781 36.5327 154.363 34.9802 154.363 33.0301C154.363 31.0206 155.842 29.5303 157.98 29.5303C159.559 29.5303 160.621 30.1613 160.753 30.2309" fill="#049FD9"/>
<path d="M195.208 26.7087C194.897 26.6164 193.751 26.2385 192.198 26.2385C188.181 26.2385 185.232 29.1115 185.232 33.0301C185.232 37.2578 188.487 39.8256 192.198 39.8256C193.672 39.8256 194.797 39.4753 195.208 39.3585V35.8363C195.066 35.9153 193.987 36.5327 192.435 36.5327C190.235 36.5327 188.817 34.9802 188.817 33.0301C188.817 31.0206 190.297 29.5303 192.435 29.5303C194.013 29.5303 195.075 30.1613 195.208 30.2309" fill="#049FD9"/>
<path d="M165.281 1.66369C165.281 0.759286 164.544 0.0258331 163.642 0.0258331C162.739 0.0258331 162.003 0.759286 162.003 1.66369V19.0876C162.003 19.9972 162.739 20.7303 163.642 20.7303C164.544 20.7303 165.281 19.9972 165.281 19.0876V1.66369ZM156.279 7.84875C156.279 6.94469 155.543 6.21019 154.64 6.21019C153.738 6.21019 153.001 6.94469 153.001 7.84875V15.8143C153.001 16.7236 153.738 17.457 154.64 17.457C155.543 17.457 156.279 16.7236 156.279 15.8143V7.84875ZM147.277 12.3697C147.277 11.4653 146.541 10.7322 145.639 10.7322C144.737 10.7322 144 11.4653 144 12.3697V15.8143C144 16.7236 144.737 17.457 145.639 17.457C146.541 17.457 147.277 16.7236 147.277 15.8143" fill="#049FD9"/>
<path d="M162.003 1.66354C162.003 0.759133 162.74 0.0256805 163.642 0.0256805C164.545 0.0256805 165.281 0.759133 165.281 1.66354V19.0874C165.281 19.9971 164.545 20.7302 163.642 20.7302C162.74 20.7302 162.003 19.9971 162.003 19.0874V1.66354ZM171.005 7.84859C171.005 6.94454 171.741 6.21004 172.644 6.21004C173.546 6.21004 174.282 6.94454 174.282 7.84859V15.8141C174.282 16.7234 173.546 17.4569 172.644 17.4569C171.741 17.4569 171.005 16.7234 171.005 15.8141V7.84859ZM180.006 12.3696C180.006 11.4652 180.743 10.7321 181.645 10.7321C182.547 10.7321 183.284 11.4652 183.284 12.3696V15.8141C183.284 16.7234 182.547 17.4569 181.645 17.4569C180.743 17.4569 180.006 16.7234 180.006 15.8141" fill="#049FD9"/>
<path d="M197.999 1.66358C197.999 0.759179 198.735 0.0257263 199.638 0.0257263C200.54 0.0257263 201.277 0.759179 201.277 1.66358V19.0875C201.277 19.9971 200.54 20.7302 199.638 20.7302C198.735 20.7302 197.999 19.9971 197.999 19.0875V1.66358ZM207.001 7.84864C207.001 6.94458 207.737 6.21008 208.639 6.21008C209.542 6.21008 210.278 6.94458 210.278 7.84864V15.8142C210.278 16.7235 209.542 17.4569 208.639 17.4569C207.737 17.4569 207.001 16.7235 207.001 15.8142V7.84864ZM216.002 12.3696C216.002 11.4652 216.738 10.7321 217.641 10.7321C218.543 10.7321 219.28 11.4652 219.28 12.3696V15.8142C219.28 16.7235 218.543 17.4569 217.641 17.4569C216.738 17.4569 216.002 16.7235 216.002 15.8142" fill="#049FD9"/>
<path d="M201.277 1.66354C201.277 0.759133 200.54 0.0256805 199.638 0.0256805C198.735 0.0256805 197.999 0.759133 197.999 1.66354V19.0874C197.999 19.9971 198.735 20.7302 199.638 20.7302C200.54 20.7302 201.277 19.9971 201.277 19.0874V1.66354ZM192.275 7.84859C192.275 6.94454 191.539 6.21004 190.636 6.21004C189.733 6.21004 188.997 6.94454 188.997 7.84859V15.8141C188.997 16.7234 189.733 17.4569 190.636 17.4569C191.539 17.4569 192.275 16.7234 192.275 15.8141V7.84859ZM183.273 12.3696C183.273 11.4652 182.537 10.7321 181.635 10.7321C180.733 10.7321 179.996 11.4652 179.996 12.3696V15.8141C179.996 16.7234 180.733 17.4569 181.635 17.4569C182.537 17.4569 183.273 16.7234 183.273 15.8141" fill="#049FD9"/>
</g>
<g clip-path="url(#clip2_1_65)">
<path fill-rule="evenodd" clip-rule="evenodd" d="M141.014 75.3704C140.147 75.3704 139.375 74.8453 139.049 74.0315C138.715 73.2176 138.895 72.2899 139.504 71.6686C140.113 71.0472 141.031 70.8634 141.829 71.196C142.627 71.5286 143.142 72.3249 143.142 73.2001C143.142 73.4889 143.09 73.7689 142.979 74.0315C142.876 74.294 142.713 74.5303 142.516 74.7316C142.318 74.9416 142.087 75.0991 141.829 75.2042C141.572 75.3179 141.289 75.3704 141.014 75.3704ZM141.014 71.2573C140.242 71.2485 139.538 71.7123 139.238 72.4387C138.929 73.1651 139.092 74.0052 139.633 74.5653C140.173 75.1254 140.997 75.2917 141.718 74.9941C142.43 74.6966 142.893 73.9877 142.893 73.2001C142.893 72.9463 142.85 72.6925 142.756 72.465C142.661 72.2287 142.516 72.0099 142.344 71.8349C142.172 71.6511 141.966 71.5111 141.735 71.4148C141.503 71.3098 141.263 71.2573 141.014 71.2573ZM141.58 74.3378L140.997 73.3664H140.619V74.3378H140.353V71.9924H141.108C141.194 71.9924 141.289 72.0011 141.374 72.0361C141.469 72.0711 141.546 72.1149 141.615 72.1849C141.683 72.2462 141.735 72.3249 141.778 72.4124C141.812 72.5 141.838 72.5875 141.838 72.6837C141.838 72.7654 141.823 72.8413 141.795 72.9113C141.772 72.9871 141.735 73.0542 141.683 73.1126C141.638 73.1709 141.58 73.2205 141.512 73.2613C141.443 73.3022 141.372 73.3284 141.297 73.3401L141.898 74.3378H141.58ZM141.066 72.2549H140.602V73.1126H141.066C141.186 73.1301 141.314 73.0951 141.4 73.0075C141.495 72.9288 141.555 72.8063 141.555 72.6837C141.555 72.5612 141.495 72.4387 141.4 72.3512C141.314 72.2724 141.186 72.2374 141.066 72.2549ZM110.795 71.8611V74.1627C110.795 74.2853 110.82 74.5916 110.554 74.5916C110.28 74.5916 110.228 74.4865 109.791 73.5589C109.508 72.9375 108.958 72.0536 105.895 71.9661C105.183 72.0011 105.106 72.1412 105.106 72.7888V84.2006C105.106 85.2245 105.106 85.8984 106.333 85.9771C106.848 85.9946 107.191 86.0209 107.191 86.3972C107.191 86.7735 106.873 86.7735 106.676 86.7735C105.87 86.7735 104.591 86.6685 103.776 86.6685C103.364 86.6685 101.374 86.7735 100.91 86.7735C100.713 86.7735 100.395 86.7473 100.395 86.3972C100.395 86.0472 100.73 86.0209 101.245 85.9771C102.48 85.8984 102.48 85.2245 102.48 84.2444V72.6137C102.48 72.0536 102.335 71.9749 101.983 71.9661C98.645 71.9924 98.0702 72.92 97.7784 73.5589C97.3409 74.4865 97.2636 74.5916 97.0234 74.5916C96.7746 74.5916 96.7746 74.2853 96.7746 74.1627V71.8611C96.7746 71.2835 96.7746 71.0822 97.0663 71.0822C97.1435 71.0822 97.1435 71.1085 97.8042 71.1347C98.4649 71.161 99.7176 71.1873 102.249 71.1873H105.32C107.852 71.1873 109.121 71.161 109.765 71.1347C110.408 71.1085 110.426 71.0822 110.503 71.0822C110.795 71.0822 110.795 71.2835 110.795 71.8611ZM84.2732 83.1679C84.2732 83.4917 83.9986 85.0933 83.9214 86.0209C83.9043 86.5022 83.6554 86.7735 82.9433 86.7735C81.6906 86.7735 79.9574 86.7473 78.5502 86.721C77.1517 86.6948 76.0019 86.6773 75.8475 86.6773H75.5557C74.5519 86.6773 73.9341 86.6948 73.548 86.721C73.1533 86.7473 72.9731 86.7735 72.7843 86.7735C72.587 86.7735 72.2695 86.7473 72.2695 86.3972C72.2695 86.0472 72.6385 86.0209 73.1533 85.9771C74.3803 85.8984 74.3803 85.2245 74.3803 84.2006V73.6376C74.3803 72.605 74.3803 71.9311 73.1533 71.8611C72.6127 71.8349 72.2695 71.7911 72.2695 71.4323C72.2695 71.0822 72.587 71.0822 72.7586 71.0822C72.8101 71.0881 72.8616 71.0939 72.913 71.0997C72.9645 71.1056 73.016 71.1114 73.0675 71.1172C73.119 71.1231 73.1704 71.126 73.2219 71.126C73.2734 71.126 73.3249 71.1289 73.3764 71.1347C73.9083 71.161 74.9637 71.1873 77.0573 71.1873H78.2242C80.7553 71.1873 82.0252 71.161 82.6687 71.1347C83.3037 71.1085 83.3294 71.0822 83.4066 71.0822C83.6983 71.0822 83.6983 71.2835 83.6983 71.8611V74.1715C83.6983 74.294 83.7241 74.5916 83.4495 74.5916C83.1835 74.5916 83.132 74.4953 82.6945 73.5676C82.3942 72.9113 81.8021 71.9661 78.3186 71.9661C77.0916 71.9661 76.9972 72.1324 76.9972 73.3839V77.0157C76.9972 77.8208 76.9972 78.0221 78.4215 78.0221C81.1414 78.0221 81.3645 77.4708 81.8021 76.1406C81.9308 75.8168 82.0252 75.7642 82.1711 75.7642C82.3169 75.7642 82.4456 75.843 82.4456 76.1231C82.4456 76.4644 82.274 79.046 82.274 79.5974C82.274 79.7724 82.3427 80.6475 82.3427 80.8488C82.3427 80.9976 82.3427 81.3476 82.0509 81.3476C81.8536 81.3476 81.7077 81.2164 81.5876 80.7438C81.0728 78.8185 80.3864 78.7922 78.37 78.7922C77.1946 78.7922 76.9972 78.7922 76.9972 79.5449V83.8418C76.9972 85.6271 77.512 85.8984 79.5713 85.8984C80.6524 85.8984 82.1796 85.8984 83.2522 83.7718C83.6983 82.8966 83.7327 82.7916 83.9643 82.7916C84.1874 82.7916 84.2646 83.0192 84.2732 83.1679ZM124.326 83.1679C124.326 83.4917 124.06 85.0933 123.982 86.0209C123.957 86.5022 123.716 86.7735 123.004 86.7735C121.752 86.7735 120.01 86.7473 118.611 86.721C117.213 86.6948 116.054 86.6773 115.908 86.6773H115.617C114.613 86.6773 113.995 86.6948 113.6 86.721C113.206 86.7473 113.034 86.7735 112.837 86.7735C112.648 86.7735 112.322 86.7473 112.322 86.3972C112.322 86.0472 112.691 86.0209 113.206 85.9771C114.433 85.8984 114.433 85.2245 114.433 84.2006V73.6376C114.433 72.605 114.433 71.9311 113.206 71.8611C112.674 71.8349 112.322 71.7911 112.322 71.4323C112.322 71.0822 112.648 71.0822 112.82 71.0822C112.871 71.0881 112.922 71.0939 112.974 71.0997C113.02 71.1056 113.068 71.1114 113.12 71.1172C113.171 71.1231 113.223 71.126 113.274 71.126C113.326 71.126 113.377 71.1289 113.429 71.1347C113.969 71.161 115.025 71.1873 117.11 71.1873H118.285C120.816 71.1873 122.095 71.161 122.73 71.1347C123.373 71.1085 123.39 71.0822 123.468 71.0822C123.759 71.0822 123.759 71.2835 123.759 71.8611V74.1715C123.759 74.294 123.785 74.5916 123.519 74.5916C123.244 74.5916 123.202 74.4953 122.755 73.5676C122.455 72.9113 121.863 71.9661 118.388 71.9661C117.161 71.9661 117.058 72.1324 117.058 73.3839V77.0157C117.058 77.8208 117.058 78.0221 118.482 78.0221C121.211 78.0221 121.425 77.4708 121.872 76.1406C121.992 75.8168 122.095 75.7642 122.241 75.7642C122.386 75.7642 122.507 75.843 122.507 76.1231C122.507 76.4644 122.335 79.046 122.335 79.5974C122.335 79.7724 122.412 80.6475 122.412 80.8488C122.412 80.9976 122.412 81.3476 122.112 81.3476C121.923 81.3476 121.777 81.2164 121.649 80.7438C121.134 78.8185 120.447 78.7922 118.431 78.7922C117.255 78.7922 117.058 78.7922 117.058 79.5449V83.8418C117.058 85.6271 117.573 85.8984 119.641 85.8984C120.722 85.8984 122.241 85.8984 123.322 83.7718C123.759 82.8966 123.802 82.7916 124.034 82.7916C124.248 82.7916 124.326 83.0192 124.326 83.1679ZM95.7449 81.8815C95.7449 84.7169 93.6857 87.0886 90.3566 87.0886C88.4003 87.0886 87.1647 86.5985 86.7186 86.2659C86.444 86.0647 86.341 85.5483 86.2724 84.9095C86.2495 84.7169 86.2295 84.5215 86.2123 84.3231C86.1952 84.1306 86.1837 83.9352 86.178 83.7368C86.1666 83.5443 86.158 83.3488 86.1523 83.1504C86.1466 82.9579 86.1437 82.7625 86.1437 82.5641C86.1437 82.4678 86.1609 82.109 86.4612 82.109C86.6842 82.109 86.7186 82.3628 86.7701 82.5991C87.2505 84.822 88.9666 86.3535 90.7427 86.3535C91.7809 86.3535 93.7543 85.6533 93.7543 83.588C93.7543 81.5927 92.0555 80.63 90.2536 79.7811C88.2287 78.8622 86.2467 77.8733 86.2467 75.1604C86.2467 72.815 87.997 70.7759 91.1803 70.7759C92.6389 70.7759 94.1147 71.1785 94.4579 71.3623C94.7582 71.5373 94.7582 71.7736 94.7582 74.014C94.7582 74.574 94.7582 74.7841 94.4064 74.7841C94.1576 74.7841 94.0632 74.6266 93.8058 73.8389C93.5055 72.8325 93.0679 71.441 90.9829 71.4148C89.0352 71.3973 88.2458 72.8413 88.2458 73.8389C88.2458 75.6505 89.7045 76.2893 91.7037 77.1295C93.1108 77.7421 95.7364 78.9935 95.7449 81.8815ZM40.9604 78.661C40.9604 83.6143 36.8419 87.0886 32.6205 87.0886C28.2789 87.0886 24.2548 83.763 24.2548 78.8885C24.2548 74.294 27.8756 70.7759 32.6977 70.7759C37.3396 70.7759 40.9604 74.2678 40.9604 78.661ZM38.0517 78.766C38.0517 75.7292 36.2928 71.476 32.406 71.476C29.3686 71.476 27.1549 74.7491 27.1549 78.3547C27.1549 82.4678 29.5144 86.3797 32.8178 86.3797C36.2413 86.3797 38.0517 82.4503 38.0517 78.766ZM23.2852 65.6476V69.4807C23.2852 69.5945 23.2852 70.1721 22.8991 70.1721C22.5044 70.1721 22.3671 69.7433 22.2384 69.4457C21.1745 67.0391 20.7197 66.269 15.1941 66.269C13.9929 66.269 13.3922 66.339 13.3922 68.0367V73.0951C13.3922 75.0466 13.4866 75.0816 13.9585 75.1604C14.4905 75.2304 16.5927 75.2304 17.1246 75.2304C19.9904 75.2304 20.5052 74.434 20.96 72.5525C21.0286 72.2637 21.2088 71.9486 21.5263 71.9749C21.8437 71.9924 21.9467 72.2287 21.9467 72.5875C21.9467 73.0951 21.8437 75.5542 21.8437 76.0968C21.8437 76.4206 21.8437 77.0332 21.9124 77.8646L22.0582 79.5711C22.0582 79.8161 22.0497 80.2275 21.6292 80.2537C21.2603 80.2712 21.123 79.8599 21.0629 79.6761C20.9771 79.4223 20.7455 78.4859 20.6768 78.3022C20.1792 76.3506 17.9054 76.3506 17.0217 76.3506C15.9749 76.3506 14.3446 76.3506 13.9671 76.4556C13.3837 76.6131 13.3837 77.0244 13.3837 78.0484V83.5968C13.3837 84.8657 13.3837 85.6971 14.8938 85.7846C15.5287 85.8109 15.9577 85.8546 15.9577 86.3185C15.9577 86.7735 15.5545 86.7735 15.3228 86.7735C14.3275 86.7735 12.7058 86.651 11.7019 86.651C11.1957 86.651 8.6903 86.7735 8.11543 86.7735C7.8666 86.7735 7.48049 86.7473 7.48049 86.3185C7.48049 85.8809 7.90092 85.8546 8.53585 85.7934C10.046 85.6971 10.046 84.8657 10.046 83.6668V68.6931C10.046 67.2054 10.046 66.2339 8.26987 66.1202C7.53197 66.0502 7 66.0152 7 65.5076C7 65 7.46333 65 7.70358 65C7.78938 65.0117 7.87232 65.0204 7.9524 65.0263C8.0382 65.0379 8.12115 65.0467 8.20123 65.0525C8.28703 65.0583 8.36997 65.0613 8.45005 65.0613C8.53585 65.0671 8.6188 65.07 8.69888 65.07C9.62554 65.105 10.904 65.14 14.4219 65.14H15.1941C18.875 65.14 20.7283 65.105 21.655 65.07C21.7408 65.07 21.8266 65.07 21.9124 65.07C21.9982 65.0642 22.084 65.0583 22.1698 65.0525C22.2556 65.0467 22.3414 65.0408 22.4272 65.035C22.513 65.0233 22.5988 65.0117 22.6846 65C23.2509 65 23.2852 65.1838 23.2852 65.6476ZM55.9243 86.476C55.9243 86.7298 55.6754 86.7735 55.5038 86.7735H52.2691C51.8315 86.7735 51.7285 86.546 51.4626 86.0209L48.4852 80.3412C47.9447 79.2561 47.8246 79.151 46.7177 79.151C46.3059 79.151 46.2544 79.3086 46.2544 79.7286V84.2269C46.2544 85.277 46.2544 85.9509 47.4813 86.0209C48.0219 86.0472 48.3651 86.0997 48.3651 86.4497C48.3651 86.7998 48.0476 86.7735 47.8503 86.7735C47.387 86.7735 45.0017 86.6773 44.9073 86.6773C44.4869 86.6773 42.5048 86.7735 42.0587 86.7735C41.8613 86.7735 41.5439 86.7735 41.5439 86.4235C41.5439 86.0734 41.9128 86.0472 42.4276 86.0209C43.6288 85.9246 43.6288 85.2683 43.6288 84.2181V73.6114C43.6288 72.5875 43.6288 71.9136 42.4276 71.8349C41.8871 71.8086 41.5439 71.7911 41.5439 71.441C41.5439 71.0822 41.6468 71.0822 42.4534 71.0822C42.7022 71.0822 43.9034 71.1873 44.1951 71.1873C44.8558 71.1873 48.1249 71.0822 48.8628 71.0822C53.2043 71.0822 53.5733 74.1365 53.5733 75.0116C53.5733 77.9433 51.0421 78.5472 50.2099 78.7222C50.5273 78.9148 50.819 79.0635 51.3853 80.1137L53.7706 84.4194C54.2597 85.2945 54.5943 85.9159 55.2893 86.0209C55.8041 86.0997 55.9243 86.2134 55.9243 86.476ZM50.8019 75.3617C50.8019 74.4603 50.4587 71.7823 47.4127 71.7823C46.2801 71.7823 46.2544 72.3862 46.2544 73.3576V77.567C46.2544 78.4422 46.2544 78.4947 47.4813 78.4947C48.3651 78.4947 50.8019 78.4947 50.8019 75.3617ZM71.3171 86.476C71.3171 86.7298 71.0769 86.7735 70.9053 86.7735H67.6705C67.2244 86.7735 67.13 86.546 66.8554 86.0209L63.8867 80.3412C63.3461 79.2561 63.226 79.151 62.1192 79.151C61.7073 79.151 61.6558 79.3086 61.6558 79.7286V84.2269C61.6558 85.277 61.6558 85.9509 62.8828 86.0209C63.4233 86.0472 63.7666 86.0997 63.7666 86.4497C63.7666 86.7998 63.4491 86.7735 63.2517 86.7735C62.7884 86.7735 60.4031 86.6773 60.3087 86.6773C59.8883 86.6773 57.8977 86.7735 57.4601 86.7735C57.2628 86.7735 56.9453 86.7735 56.9453 86.4235C56.9453 86.0734 57.3143 86.0472 57.8291 86.0209C59.0303 85.9246 59.0303 85.2683 59.0303 84.2181V73.6114C59.0303 72.5875 59.0303 71.9136 57.8291 71.8349C57.2885 71.8086 56.9453 71.7911 56.9453 71.441C56.9453 71.0822 57.0397 71.0822 57.8548 71.0822C58.0951 71.0822 59.2963 71.1873 59.5966 71.1873C60.2573 71.1873 63.5177 71.0822 64.2556 71.0822C68.5972 71.0822 68.9662 74.1365 68.9662 75.0116C68.9662 77.9433 66.4436 78.5472 65.6027 78.7222C65.9288 78.9148 66.2205 79.0635 66.7868 80.1137L69.1635 84.4194C69.6526 85.2945 69.9872 85.9159 70.6822 86.0209C71.197 86.0997 71.3171 86.2134 71.3171 86.476ZM66.2033 75.3617C66.2033 74.4603 65.8601 71.7823 62.8142 71.7823C61.6816 71.7823 61.6558 72.3862 61.6558 73.3576V77.567C61.6558 78.4422 61.6558 78.4947 62.8828 78.4947C63.7666 78.4947 66.1948 78.4947 66.2033 75.3617ZM140.079 86.476C140.079 86.7298 139.839 86.7735 139.667 86.7735H136.432C135.986 86.7735 135.892 86.546 135.626 86.0209L132.64 80.3325C132.099 79.2561 131.979 79.151 130.872 79.151C130.46 79.151 130.409 79.2998 130.409 79.7286V84.2181C130.409 85.2683 130.409 85.9509 131.653 86.0209C132.185 86.0472 132.537 86.0997 132.537 86.4497C132.537 86.7998 132.211 86.7735 132.022 86.7735C131.55 86.7735 129.173 86.6773 129.07 86.6773C128.659 86.6773 126.668 86.7735 126.222 86.7735C126.033 86.7735 125.707 86.7735 125.707 86.4235C125.707 86.0734 126.076 86.0472 126.591 86.0209C127.792 85.9246 127.792 85.2683 127.792 84.2181V73.6114C127.792 72.5875 127.792 71.9136 126.591 71.8349C126.059 71.8086 125.707 71.7911 125.707 71.441C125.707 71.0822 125.81 71.0822 126.616 71.0822C126.865 71.0822 128.067 71.1873 128.358 71.1873C129.028 71.1873 132.288 71.0822 133.026 71.0822C137.367 71.0822 137.736 74.1365 137.736 75.0116C137.736 77.9433 135.205 78.5472 134.373 78.7222C134.69 78.9148 134.991 79.0635 135.557 80.1137L137.934 84.4194C138.423 85.2945 138.757 85.9159 139.452 86.0209C139.967 86.0997 140.079 86.2134 140.079 86.476ZM134.965 75.3617C134.965 74.4603 134.622 71.7823 131.576 71.7823C130.443 71.7823 130.417 72.3862 130.417 73.3576V77.567C130.417 78.4422 130.417 78.4947 131.644 78.4947C132.528 78.4947 134.956 78.4947 134.965 75.3617Z" fill="black"/>
</g>
<g clip-path="url(#clip3_1_65)">
<path d="M213.19 80.8741C215.564 80.8741 218.999 80.3836 218.999 77.5544C219.006 77.336 218.986 77.1177 218.94 76.9041L217.526 70.7515C217.2 69.3977 216.913 68.7836 214.541 67.5953C212.7 66.6522 208.69 65.095 207.504 65.095C206.4 65.095 206.079 66.521 204.762 66.521C203.495 66.521 202.553 65.4563 201.367 65.4563C200.229 65.4563 199.487 66.2339 198.913 67.8329C198.913 67.8329 197.318 72.3429 197.113 72.9969C197.08 73.117 197.066 73.2414 197.071 73.3658C197.071 75.1188 203.959 80.8665 213.19 80.8665M219.363 78.7028C219.691 80.26 219.691 80.4235 219.691 80.6288C219.691 83.2907 216.704 84.768 212.778 84.768C203.904 84.7737 196.131 79.5641 196.131 76.1208C196.131 75.6415 196.228 75.1672 196.418 74.7271C193.226 74.8868 189.095 75.4572 189.095 79.1116C189.095 85.0969 203.25 92.4741 214.457 92.4741C223.05 92.4741 225.217 88.5802 225.217 85.5057C225.217 83.0872 223.13 80.3417 219.367 78.7028" fill="#EE0000"/>
<path d="M219.363 78.7028C219.691 80.26 219.691 80.4235 219.691 80.6288C219.691 83.2907 216.704 84.768 212.778 84.768C203.904 84.7737 196.131 79.5641 196.131 76.1208C196.131 75.6415 196.228 75.1672 196.418 74.7271L197.113 73.0045C197.081 73.1222 197.067 73.2439 197.071 73.3658C197.071 75.1188 203.959 80.8665 213.19 80.8665C215.564 80.8665 218.999 80.3759 218.999 77.5468C219.006 77.3284 218.986 77.11 218.94 76.8965L219.363 78.7028ZM299.017 82.6442C299.017 84.9049 300.373 86.0039 302.848 86.0039C303.61 85.9849 304.367 85.8777 305.104 85.6844V83.0625C304.633 83.2121 304.141 83.2866 303.647 83.2831C302.628 83.2831 302.25 82.9636 302.25 82.0035V77.986H305.203V75.2861H302.25V71.8637L299.024 72.5634V75.2861H296.882V77.986H299.017V82.6442ZM288.959 82.7051C288.959 82.0054 289.659 81.665 290.716 81.665C291.362 81.6688 292.006 81.7492 292.633 81.9046V83.2641C292.015 83.6023 291.32 83.7746 290.616 83.7641C289.579 83.7641 288.959 83.3648 288.959 82.7051ZM289.946 86.0438C291.084 86.0438 292.003 85.8042 292.861 85.2243V85.8651H296.052V79.0849C296.052 76.5068 294.318 75.0922 291.424 75.0922C289.807 75.0922 288.209 75.4724 286.49 76.252L287.648 78.6324C288.885 78.1115 289.925 77.7921 290.841 77.7921C292.17 77.7921 292.857 78.3111 292.857 79.372V79.8911C292.075 79.6883 291.27 79.5873 290.462 79.5907C287.746 79.5907 286.11 80.7315 286.11 82.7716C286.11 84.6311 287.587 86.0495 289.942 86.0495L289.946 86.0438ZM272.4 85.8708H275.833V80.3855H281.581V85.8651H285.023V71.8675H281.594V77.2464H275.846V71.8675H272.413L272.4 85.8708ZM259.332 80.5661C259.332 79.045 260.53 77.8852 262.107 77.8852C262.927 77.8685 263.724 78.1618 264.338 78.7066V82.4047C264.04 82.6865 263.69 82.9066 263.307 83.0521C262.924 83.1976 262.516 83.2658 262.107 83.2526C260.55 83.2526 259.332 82.0928 259.332 80.5737V80.5661ZM264.382 85.8727H267.576V71.1678L264.35 71.8675V75.847C263.528 75.3805 262.599 75.1392 261.655 75.1473C258.583 75.1473 256.167 77.5259 256.167 80.5661C256.158 81.2794 256.291 81.9874 256.558 82.6486C256.826 83.3099 257.222 83.9112 257.723 84.4174C258.225 84.9236 258.822 85.3246 259.48 85.597C260.139 85.8694 260.844 86.0077 261.556 86.0039C262.574 86.0087 263.567 85.6869 264.389 85.0855L264.382 85.8727ZM249.726 77.7388C250.743 77.7388 251.601 78.3986 251.941 79.4177H247.538C247.857 78.3663 248.656 77.7388 249.726 77.7388ZM244.285 80.5908C244.285 83.6709 246.8 86.0704 250.032 86.0704C251.808 86.0704 253.106 85.5894 254.444 84.4695L252.307 82.5682C251.808 83.0891 251.07 83.3686 250.193 83.3686C249.642 83.3842 249.098 83.2321 248.635 82.9324C248.172 82.6328 247.81 82.1995 247.597 81.6898H255.121V80.8855C255.121 77.5259 252.867 75.1074 249.792 75.1074C249.07 75.0965 248.352 75.2304 247.682 75.5014C247.012 75.7723 246.402 76.1748 245.89 76.6852C245.377 77.1955 244.971 77.8035 244.696 78.4732C244.421 79.1429 244.283 79.861 244.289 80.5851L244.285 80.5908ZM238.719 74.807C239.858 74.807 240.496 75.5257 240.496 76.387C240.496 77.2483 239.858 77.967 238.719 77.967H235.324V74.807H238.719ZM231.888 85.8651H235.321V80.7657H237.934L240.57 85.8651H244.413L241.338 80.2657C242.12 79.9473 242.788 79.402 243.257 78.7C243.727 77.9979 243.976 77.1712 243.972 76.3261C243.972 73.8069 241.997 71.8675 239.038 71.8675H231.888V85.8651Z" fill="black"/>
</g>
<g clip-path="url(#clip4_1_65)">
<path d="M229.608 118.347H225V122.995H229.608V118.347Z" fill="#04C7FD"/>
<path d="M229.493 142.561V125.823H225.131V142.561H229.493ZM258.484 142.727V138.625C257.845 138.625 257.303 138.592 256.91 138.526C256.451 138.46 256.106 138.294 255.877 138.063C255.647 137.831 255.5 137.5 255.418 137.07C255.352 136.657 255.319 136.111 255.319 135.449V129.594H258.484V125.823H255.319V119.29H250.941V135.482C250.941 136.855 251.056 138.013 251.285 138.939C251.515 139.849 251.909 140.593 252.45 141.156C252.991 141.718 253.712 142.115 254.581 142.363C255.467 142.611 256.582 142.727 257.91 142.727H258.484ZM283.54 142.561V118H279.161V142.561H283.54ZM246.727 127.461C245.513 126.138 243.808 125.476 241.644 125.476C240.594 125.476 239.643 125.691 238.774 126.121C237.921 126.551 237.183 127.146 236.61 127.907L236.364 128.222V127.94V125.823H232.051V142.561H236.396V133.647V134.258C236.396 134.159 236.396 134.06 236.396 133.961C236.446 132.39 236.823 131.232 237.544 130.487C238.315 129.694 239.25 129.297 240.315 129.297C241.578 129.297 242.546 129.694 243.185 130.454C243.808 131.215 244.136 132.29 244.136 133.663V133.696V142.545H248.547V133.051C248.563 130.669 247.94 128.784 246.727 127.461ZM276.899 134.159C276.899 132.952 276.685 131.827 276.275 130.769C275.849 129.727 275.259 128.8 274.521 128.007C273.767 127.213 272.865 126.601 271.815 126.154C270.766 125.707 269.602 125.492 268.339 125.492C267.142 125.492 266.011 125.724 264.961 126.171C263.912 126.634 262.993 127.246 262.223 128.023C261.452 128.8 260.829 129.727 260.386 130.785C259.927 131.844 259.714 132.985 259.714 134.192C259.714 135.4 259.927 136.541 260.353 137.6C260.78 138.658 261.386 139.584 262.141 140.362C262.895 141.139 263.83 141.767 264.912 142.214C265.994 142.677 267.191 142.909 268.47 142.909C272.176 142.909 274.472 141.205 275.849 139.617L272.701 137.203C272.045 137.996 270.471 139.072 268.503 139.072C267.273 139.072 266.256 138.79 265.486 138.211C264.715 137.649 264.19 136.855 263.912 135.879L263.862 135.731H276.899V134.159ZM263.895 132.621C263.895 131.397 265.289 129.264 268.29 129.247C271.291 129.247 272.701 131.381 272.701 132.605L263.895 132.621Z" fill="#0068B5"/>
<path d="M288.524 140.378C288.442 140.18 288.328 140.014 288.18 139.865C288.033 139.717 287.869 139.601 287.672 139.518C287.475 139.435 287.262 139.386 287.049 139.386C286.819 139.386 286.622 139.435 286.426 139.518C286.229 139.601 286.065 139.717 285.917 139.865C285.77 140.014 285.655 140.18 285.573 140.378C285.491 140.577 285.442 140.792 285.442 141.007C285.442 141.238 285.491 141.437 285.573 141.635C285.655 141.834 285.77 141.999 285.917 142.148C286.065 142.297 286.229 142.413 286.426 142.495C286.622 142.578 286.836 142.628 287.049 142.628C287.278 142.628 287.475 142.578 287.672 142.495C287.869 142.413 288.033 142.297 288.18 142.148C288.328 141.999 288.442 141.834 288.524 141.635C288.606 141.437 288.656 141.222 288.656 141.007C288.656 140.792 288.606 140.577 288.524 140.378ZM288.262 141.536C288.197 141.701 288.098 141.85 287.983 141.966C287.869 142.082 287.721 142.181 287.557 142.247C287.393 142.313 287.229 142.346 287.032 142.346C286.852 142.346 286.672 142.313 286.508 142.247C286.344 142.181 286.196 142.082 286.081 141.966C285.966 141.85 285.868 141.701 285.802 141.536C285.737 141.371 285.704 141.205 285.704 141.007C285.704 140.825 285.737 140.643 285.802 140.477C285.868 140.312 285.966 140.163 286.081 140.047C286.196 139.932 286.344 139.832 286.508 139.766C286.672 139.7 286.836 139.667 287.032 139.667C287.213 139.667 287.393 139.7 287.557 139.766C287.721 139.832 287.869 139.932 287.983 140.047C288.098 140.163 288.197 140.312 288.262 140.477C288.328 140.643 288.36 140.808 288.36 141.007C288.377 141.205 288.328 141.371 288.262 141.536ZM287.344 141.139C287.475 141.122 287.573 141.073 287.655 140.99C287.737 140.907 287.787 140.792 287.787 140.626C287.787 140.444 287.737 140.312 287.623 140.213C287.524 140.114 287.344 140.064 287.131 140.064H286.409V141.933H286.754V141.172H286.999L287.459 141.933H287.819L287.344 141.139ZM287.163 140.874C287.114 140.874 287.065 140.874 286.999 140.874H286.754V140.345H286.999C287.049 140.345 287.098 140.345 287.163 140.345C287.213 140.345 287.262 140.362 287.311 140.378C287.36 140.395 287.393 140.428 287.409 140.461C287.426 140.494 287.442 140.544 287.442 140.61C287.442 140.676 287.426 140.725 287.409 140.759C287.377 140.792 287.344 140.825 287.311 140.841C287.262 140.858 287.213 140.874 287.163 140.874Z" fill="#0068B5"/>
</g>
<g clip-path="url(#clip5_1_65)">
<path d="M89.0893 121.867V139.47H86.0397V125.657H85.999L80.5503 139.47H78.5172L72.9466 125.657H72.9059V139.47H70.1002V121.867H74.4917L79.5338 134.906H79.6151L84.9418 121.867H89.0893ZM91.6104 123.212C91.6104 122.723 91.773 122.316 92.139 121.99C92.5049 121.664 92.9116 121.501 93.3995 121.501C93.9281 121.501 94.3754 121.664 94.7007 121.99C95.026 122.316 95.2293 122.723 95.2293 123.212C95.2293 123.701 95.0667 124.108 94.7007 124.434C94.3347 124.76 93.9281 124.923 93.3995 124.923C92.8709 124.923 92.4643 124.76 92.139 124.434C91.8137 124.068 91.6104 123.66 91.6104 123.212ZM94.904 126.838V139.47H91.9357V126.838H94.904ZM103.89 137.31C104.338 137.31 104.826 137.229 105.354 136.984C105.883 136.78 106.371 136.495 106.818 136.169V138.94C106.33 139.225 105.801 139.429 105.191 139.551C104.582 139.673 103.931 139.755 103.199 139.755C101.329 139.755 99.8241 139.184 98.6856 138.003C97.5064 136.821 96.9371 135.313 96.9371 133.521C96.9371 131.483 97.547 129.813 98.7262 128.509C99.9054 127.205 101.573 126.553 103.768 126.553C104.338 126.553 104.907 126.635 105.435 126.757C106.005 126.879 106.452 127.083 106.777 127.246V130.098C106.33 129.772 105.842 129.487 105.395 129.324C104.907 129.161 104.419 129.039 103.931 129.039C102.752 129.039 101.817 129.405 101.085 130.18C100.353 130.954 100.027 131.972 100.027 133.276C100.027 134.539 100.393 135.558 101.085 136.251C101.776 136.943 102.711 137.31 103.89 137.31ZM115.235 126.635C115.479 126.635 115.682 126.635 115.886 126.675C116.089 126.716 116.252 126.757 116.374 126.798V129.813C116.211 129.691 116.008 129.568 115.682 129.487C115.357 129.405 115.032 129.324 114.584 129.324C113.852 129.324 113.243 129.65 112.755 130.261C112.267 130.872 111.982 131.809 111.982 133.113V139.47H109.014V126.838H111.982V128.835H112.023C112.307 128.142 112.714 127.613 113.243 127.205C113.812 126.838 114.462 126.635 115.235 126.635ZM116.536 133.358C116.536 131.28 117.146 129.609 118.285 128.387C119.464 127.164 121.09 126.553 123.164 126.553C125.116 126.553 126.661 127.124 127.759 128.305C128.857 129.487 129.426 131.076 129.426 133.072C129.426 135.11 128.816 136.74 127.678 137.962C126.498 139.184 124.913 139.796 122.879 139.796C120.928 139.796 119.382 139.225 118.244 138.084C117.105 136.903 116.536 135.313 116.536 133.358ZM119.626 133.235C119.626 134.539 119.911 135.558 120.521 136.251C121.131 136.943 121.985 137.31 123.083 137.31C124.14 137.31 124.994 136.984 125.563 136.251C126.132 135.558 126.417 134.539 126.417 133.154C126.417 131.809 126.132 130.791 125.563 130.057C124.994 129.365 124.14 128.998 123.123 128.998C122.026 128.998 121.212 129.365 120.602 130.098C119.911 130.872 119.626 131.891 119.626 133.235ZM133.858 130.18C133.858 130.587 133.98 130.954 134.265 131.198C134.549 131.443 135.119 131.728 136.054 132.095C137.233 132.584 138.087 133.113 138.534 133.684C139.022 134.295 139.266 134.988 139.266 135.843C139.266 137.025 138.819 137.962 137.884 138.695C136.989 139.429 135.729 139.755 134.183 139.755C133.655 139.755 133.086 139.673 132.435 139.551C131.784 139.429 131.256 139.266 130.808 139.062V136.128C131.337 136.495 131.947 136.821 132.557 137.025C133.167 137.229 133.736 137.351 134.265 137.351C134.915 137.351 135.444 137.269 135.729 137.066C136.054 136.862 136.217 136.577 136.217 136.128C136.217 135.721 136.054 135.395 135.729 135.069C135.403 134.784 134.753 134.458 133.858 134.091C132.76 133.643 131.988 133.113 131.54 132.543C131.093 131.972 130.849 131.239 130.849 130.343C130.849 129.202 131.296 128.264 132.191 127.531C133.086 126.798 134.265 126.431 135.688 126.431C136.135 126.431 136.623 126.472 137.152 126.594C137.68 126.716 138.168 126.838 138.534 126.961V129.854C138.128 129.609 137.68 129.365 137.152 129.161C136.623 128.957 136.095 128.876 135.607 128.876C135.037 128.876 134.59 128.998 134.305 129.202C134.021 129.487 133.858 129.772 133.858 130.18ZM140.527 133.358C140.527 131.28 141.137 129.609 142.275 128.387C143.454 127.164 145.081 126.553 147.155 126.553C149.106 126.553 150.652 127.124 151.749 128.305C152.847 129.487 153.417 131.076 153.417 133.072C153.417 135.11 152.807 136.74 151.668 137.962C150.489 139.184 148.903 139.796 146.87 139.796C144.918 139.796 143.373 139.225 142.235 138.084C141.137 136.903 140.527 135.313 140.527 133.358ZM143.617 133.235C143.617 134.539 143.902 135.558 144.512 136.251C145.122 136.943 145.975 137.31 147.073 137.31C148.13 137.31 148.984 136.984 149.554 136.251C150.123 135.558 150.408 134.539 150.408 133.154C150.408 131.809 150.123 130.791 149.554 130.057C148.984 129.365 148.13 128.998 147.114 128.998C146.016 128.998 145.203 129.365 144.593 130.098C143.942 130.872 143.617 131.891 143.617 133.235ZM163.297 129.283H158.865V139.47H155.856V129.283H153.742V126.838H155.856V125.086C155.856 123.782 156.304 122.682 157.157 121.827C158.011 120.971 159.109 120.564 160.451 120.564C160.817 120.564 161.142 120.604 161.427 120.604C161.712 120.604 161.956 120.686 162.159 120.767V123.334C162.078 123.293 161.874 123.212 161.63 123.131C161.386 123.049 161.102 123.008 160.776 123.008C160.166 123.008 159.678 123.212 159.353 123.579C159.028 123.945 158.865 124.557 158.865 125.29V126.798H163.297V123.945L166.266 123.049V126.798H169.275V129.242H166.266V135.151C166.266 135.925 166.428 136.454 166.672 136.78C166.957 137.106 167.404 137.269 168.014 137.269C168.177 137.269 168.38 137.229 168.624 137.147C168.868 137.066 169.071 136.984 169.234 136.862V139.307C169.031 139.429 168.746 139.51 168.299 139.592C167.852 139.673 167.445 139.714 166.998 139.714C165.737 139.714 164.802 139.388 164.192 138.736C163.582 138.084 163.257 137.066 163.257 135.721L163.297 129.283Z" fill="#737373"/>
<path d="M45.9064 116H32V129.935H45.9064V116Z" fill="#F25022"/>
<path d="M61.2766 116H47.3702V129.935H61.2766V116Z" fill="#7FBA00"/>
<path d="M45.9064 131.402H32V145.337H45.9064V131.402Z" fill="#00A4EF"/>
<path d="M61.2766 131.402H47.3702V145.337H61.2766V131.402Z" fill="#FFB900"/>
</g>
<g clip-path="url(#clip6_1_65)">
<mask id="mask0_1_65" style="mask-type:luminance" maskUnits="userSpaceOnUse" x="239" y="226" width="65" height="46">
<path d="M239.014 226.119H303.54V271.27H239.014V226.119Z" fill="white"/>
</mask>
<g mask="url(#mask0_1_65)">
<path fill-rule="evenodd" clip-rule="evenodd" d="M265.807 231.062C267.889 228.89 270.788 227.545 273.991 227.545C278.261 227.545 281.962 229.921 283.954 233.462C285.723 232.67 287.639 232.261 289.577 232.262C297.263 232.262 303.502 238.559 303.502 246.33C303.502 254.101 297.263 260.398 289.577 260.398C288.637 260.398 287.721 260.304 286.825 260.125C285.081 263.238 281.748 265.353 277.952 265.353C276.407 265.356 274.882 265.005 273.493 264.326C271.725 268.485 267.609 271.408 262.817 271.408C257.812 271.408 253.566 268.248 251.929 263.804C251.2 263.958 250.458 264.035 249.713 264.035C243.759 264.035 238.943 259.139 238.943 253.127C238.943 249.087 241.111 245.57 244.328 243.669C243.646 242.094 243.294 240.395 243.296 238.678C243.296 231.739 248.918 226.131 255.845 226.131C259.902 226.131 263.532 228.068 265.809 231.074" fill="#00A1E0"/>
</g>
<path fill-rule="evenodd" clip-rule="evenodd" d="M248.347 249.598C248.306 249.704 248.361 249.726 248.374 249.745C248.495 249.832 248.619 249.896 248.742 249.968C249.401 250.317 250.023 250.419 250.673 250.419C251.997 250.419 252.82 249.713 252.82 248.577V248.555C252.82 247.505 251.89 247.122 251.022 246.849L250.908 246.812C250.251 246.599 249.684 246.413 249.684 245.98V245.958C249.684 245.587 250.016 245.314 250.528 245.314C251.098 245.314 251.776 245.504 252.21 245.744C252.21 245.744 252.339 245.828 252.386 245.703C252.411 245.636 252.632 245.043 252.656 244.976C252.681 244.906 252.637 244.854 252.592 244.827C252.094 244.523 251.406 244.316 250.694 244.316L250.562 244.316C249.35 244.316 248.503 245.051 248.503 246.101V246.124C248.503 247.231 249.437 247.592 250.31 247.842L250.451 247.885C251.087 248.081 251.637 248.251 251.637 248.698V248.721C251.637 249.132 251.279 249.438 250.705 249.438C250.481 249.438 249.77 249.434 248.999 248.946C248.906 248.892 248.853 248.853 248.781 248.809C248.743 248.786 248.648 248.744 248.607 248.869L248.346 249.596M267.727 249.596C267.687 249.702 267.742 249.724 267.755 249.743C267.876 249.831 267.999 249.894 268.123 249.966C268.782 250.315 269.404 250.417 270.054 250.417C271.378 250.417 272.201 249.711 272.201 248.576V248.553C272.201 247.503 271.273 247.12 270.403 246.847L270.289 246.81C269.632 246.597 269.065 246.411 269.065 245.978V245.956C269.065 245.586 269.397 245.312 269.909 245.312C270.479 245.312 271.155 245.502 271.591 245.742C271.591 245.742 271.72 245.826 271.767 245.701C271.792 245.634 272.014 245.041 272.035 244.974C272.06 244.905 272.016 244.852 271.971 244.825C271.473 244.521 270.785 244.314 270.073 244.314L269.941 244.314C268.728 244.314 267.882 245.049 267.882 246.099V246.122C267.882 247.229 268.816 247.59 269.689 247.84L269.829 247.884C270.468 248.079 271.016 248.25 271.016 248.696V248.719C271.016 249.13 270.657 249.436 270.083 249.436C269.86 249.436 269.146 249.433 268.378 248.944C268.284 248.89 268.23 248.852 268.159 248.807C268.135 248.792 268.023 248.748 267.985 248.867L267.724 249.594M280.961 247.37C280.961 248.011 280.842 248.517 280.608 248.876C280.375 249.23 280.022 249.404 279.531 249.404C279.04 249.404 278.689 249.232 278.459 248.879C278.227 248.522 278.11 248.014 278.11 247.372C278.11 246.73 278.228 246.227 278.459 245.872C278.688 245.521 279.038 245.352 279.531 245.352C280.024 245.352 280.376 245.522 280.608 245.872C280.843 246.227 280.961 246.73 280.961 247.372M282.067 246.181C281.958 245.813 281.789 245.49 281.564 245.219C281.338 244.948 281.054 244.729 280.715 244.573C280.378 244.415 279.979 244.335 279.529 244.335C279.078 244.335 278.682 244.415 278.342 244.573C278.006 244.73 277.719 244.948 277.493 245.219C277.268 245.49 277.099 245.813 276.99 246.181C276.882 246.547 276.828 246.947 276.828 247.372C276.828 247.797 276.882 248.197 276.99 248.563C277.099 248.931 277.268 249.254 277.493 249.525C277.719 249.796 278.006 250.012 278.342 250.167C278.682 250.321 279.08 250.399 279.529 250.399C279.977 250.399 280.376 250.321 280.712 250.167C281.049 250.013 281.336 249.796 281.562 249.525C281.787 249.254 281.955 248.931 282.065 248.563C282.172 248.197 282.227 247.797 282.227 247.372C282.227 246.949 282.172 246.547 282.065 246.181M291.15 249.223C291.114 249.115 291.009 249.156 291.009 249.156C290.849 249.218 290.677 249.275 290.494 249.303C290.31 249.332 290.105 249.347 289.889 249.347C289.356 249.347 288.929 249.187 288.625 248.871C288.319 248.555 288.148 248.047 288.151 247.358C288.152 246.73 288.304 246.26 288.575 245.899C288.843 245.542 289.256 245.357 289.802 245.357C290.257 245.357 290.606 245.41 290.971 245.524C290.971 245.524 291.058 245.562 291.099 245.448C291.196 245.179 291.268 244.987 291.372 244.692C291.402 244.608 291.329 244.572 291.303 244.562C291.16 244.506 290.822 244.414 290.565 244.375C290.326 244.338 290.048 244.319 289.735 244.319C289.27 244.319 288.857 244.399 288.504 244.557C288.15 244.714 287.851 244.932 287.614 245.203C287.377 245.474 287.197 245.797 287.076 246.166C286.956 246.532 286.895 246.933 286.895 247.359C286.895 248.276 287.142 249.02 287.631 249.564C288.12 250.11 288.855 250.386 289.813 250.386C290.38 250.386 290.961 250.271 291.379 250.106C291.379 250.106 291.459 250.067 291.424 249.974L291.151 249.223M293.085 246.752C293.138 246.395 293.235 246.098 293.388 245.868C293.618 245.516 293.967 245.323 294.458 245.323C294.949 245.323 295.274 245.517 295.507 245.868C295.661 246.099 295.728 246.407 295.753 246.752L293.073 246.751L293.085 246.752ZM296.809 245.967C296.715 245.613 296.482 245.255 296.33 245.091C296.088 244.832 295.853 244.649 295.618 244.549C295.279 244.404 294.914 244.33 294.546 244.331C294.079 244.331 293.654 244.41 293.31 244.571C292.966 244.733 292.677 244.953 292.449 245.229C292.221 245.505 292.05 245.83 291.941 246.203C291.832 246.572 291.777 246.976 291.777 247.399C291.777 247.831 291.834 248.233 291.947 248.596C292.06 248.962 292.243 249.283 292.49 249.549C292.737 249.818 293.052 250.027 293.432 250.174C293.809 250.321 294.267 250.396 294.791 250.395C295.873 250.391 296.442 250.15 296.675 250.019C296.716 249.996 296.755 249.956 296.706 249.84L296.462 249.153C296.425 249.051 296.321 249.088 296.321 249.088C296.053 249.188 295.674 249.368 294.784 249.366C294.203 249.365 293.773 249.193 293.503 248.924C293.228 248.648 293.09 248.247 293.069 247.676L296.817 247.679C296.817 247.679 296.916 247.678 296.926 247.582C296.93 247.542 297.054 246.812 296.814 245.968L296.809 245.967ZM263.123 246.752C263.176 246.395 263.274 246.098 263.427 245.868C263.656 245.516 264.006 245.323 264.497 245.323C264.988 245.323 265.313 245.517 265.545 245.868C265.699 246.099 265.766 246.407 265.792 246.752L263.111 246.751L263.123 246.752ZM266.847 245.967C266.754 245.613 266.52 245.255 266.368 245.091C266.126 244.832 265.891 244.649 265.657 244.549C265.318 244.404 264.953 244.33 264.584 244.331C264.117 244.331 263.692 244.41 263.348 244.571C263.004 244.733 262.715 244.953 262.487 245.229C262.26 245.505 262.089 245.83 261.98 246.203C261.871 246.572 261.816 246.976 261.816 247.399C261.816 247.831 261.873 248.233 261.986 248.596C262.099 248.962 262.282 249.283 262.527 249.549C262.773 249.818 263.089 250.027 263.468 250.174C263.846 250.321 264.301 250.396 264.828 250.395C265.909 250.391 266.479 250.15 266.711 250.019C266.753 249.996 266.792 249.956 266.743 249.84L266.499 249.153C266.461 249.051 266.357 249.088 266.357 249.088C266.089 249.188 265.71 249.368 264.82 249.366C264.241 249.365 263.81 249.193 263.539 248.924C263.264 248.648 263.126 248.247 263.105 247.676L266.853 247.679C266.853 247.679 266.952 247.678 266.962 247.582C266.966 247.542 267.09 246.812 266.85 245.968L266.847 245.967ZM255.034 249.199C254.887 249.082 254.866 249.053 254.818 248.977C254.744 248.862 254.706 248.699 254.706 248.49C254.706 248.162 254.815 247.924 255.04 247.765C255.038 247.765 255.363 247.485 256.127 247.494C256.467 247.5 256.806 247.529 257.142 247.581V249.285H257.142C257.142 249.285 256.668 249.387 256.132 249.419C255.37 249.465 255.033 249.2 255.036 249.201L255.034 249.199ZM256.523 246.562C256.372 246.55 256.175 246.545 255.94 246.545C255.62 246.545 255.309 246.585 255.019 246.663C254.728 246.742 254.464 246.864 254.239 247.027C254.013 247.188 253.827 247.4 253.696 247.645C253.563 247.892 253.495 248.182 253.495 248.51C253.495 248.842 253.553 249.13 253.667 249.365C253.779 249.599 253.947 249.8 254.156 249.952C254.364 250.104 254.621 250.216 254.917 250.283C255.211 250.35 255.543 250.384 255.909 250.384C256.293 250.384 256.675 250.351 257.045 250.289C257.36 250.235 257.674 250.173 257.987 250.106C258.112 250.077 258.25 250.039 258.25 250.039C258.343 250.015 258.336 249.916 258.336 249.916L258.333 246.494C258.333 245.743 258.133 245.185 257.738 244.84C257.344 244.496 256.768 244.322 256.02 244.322C255.741 244.322 255.287 244.36 255.017 244.415C255.017 244.415 254.201 244.573 253.864 244.838C253.864 244.838 253.79 244.883 253.83 244.987L254.096 245.7C254.129 245.792 254.219 245.76 254.219 245.76C254.219 245.76 254.247 245.749 254.28 245.73C254.999 245.337 255.91 245.349 255.91 245.349C256.313 245.349 256.627 245.431 256.835 245.592C257.04 245.749 257.144 245.986 257.144 246.485V246.644C256.823 246.597 256.527 246.57 256.527 246.57L256.523 246.562ZM286.651 244.63C286.656 244.617 286.659 244.604 286.659 244.59C286.659 244.576 286.657 244.563 286.652 244.55C286.646 244.538 286.639 244.526 286.629 244.517C286.619 244.507 286.608 244.5 286.595 244.495C286.531 244.47 286.213 244.403 285.969 244.388C285.499 244.358 285.238 244.438 285.003 244.543C284.771 244.648 284.514 244.817 284.372 245.011L284.372 244.555C284.372 244.492 284.327 244.442 284.264 244.442H283.306C283.244 244.442 283.199 244.492 283.199 244.555V250.14C283.199 250.17 283.211 250.199 283.232 250.22C283.253 250.241 283.282 250.253 283.312 250.254H284.294C284.324 250.253 284.353 250.241 284.374 250.22C284.396 250.199 284.408 250.17 284.408 250.14V247.336C284.408 246.96 284.449 246.587 284.531 246.352C284.612 246.119 284.723 245.933 284.859 245.8C284.988 245.672 285.147 245.577 285.321 245.522C285.485 245.475 285.654 245.452 285.824 245.452C286.02 245.452 286.235 245.502 286.235 245.502C286.307 245.51 286.347 245.466 286.371 245.401C286.435 245.229 286.618 244.716 286.653 244.614" fill="#FFFFFE"/>
<path fill-rule="evenodd" clip-rule="evenodd" d="M277.478 242.052C277.357 242.015 277.233 241.986 277.108 241.964C276.94 241.936 276.77 241.923 276.6 241.925C275.923 241.925 275.39 242.116 275.015 242.495C274.643 242.87 274.39 243.442 274.263 244.195L274.217 244.449H273.368C273.368 244.449 273.264 244.444 273.242 244.558L273.103 245.337C273.093 245.412 273.125 245.458 273.225 245.458H274.052L273.213 250.15C273.147 250.528 273.072 250.838 272.988 251.074C272.906 251.306 272.826 251.48 272.727 251.607C272.632 251.729 272.541 251.819 272.385 251.872C272.256 251.915 272.107 251.935 271.945 251.935C271.854 251.935 271.733 251.92 271.644 251.902C271.555 251.885 271.509 251.865 271.443 251.837C271.443 251.837 271.346 251.8 271.307 251.897C271.276 251.977 271.056 252.584 271.03 252.659C271.003 252.733 271.04 252.791 271.087 252.808C271.198 252.848 271.279 252.873 271.429 252.908C271.638 252.958 271.813 252.961 271.978 252.961C272.322 252.961 272.636 252.912 272.896 252.818C273.158 252.723 273.386 252.558 273.588 252.335C273.806 252.093 273.943 251.841 274.074 251.496C274.204 251.155 274.314 250.731 274.403 250.237L275.246 245.458H276.478C276.478 245.458 276.582 245.462 276.604 245.349L276.743 244.569C276.753 244.495 276.721 244.448 276.621 244.449H275.425C275.431 244.422 275.485 244 275.622 243.603C275.681 243.434 275.791 243.297 275.885 243.203C275.972 243.114 276.08 243.047 276.198 243.008C276.328 242.968 276.464 242.948 276.6 242.95C276.713 242.95 276.823 242.963 276.907 242.981C277.023 243.006 277.068 243.019 277.099 243.028C277.221 243.065 277.237 243.029 277.261 242.97L277.547 242.183C277.577 242.098 277.505 242.063 277.478 242.052ZM260.76 250.16C260.76 250.222 260.715 250.273 260.653 250.273H259.661C259.598 250.273 259.553 250.222 259.553 250.16V242.159C259.553 242.096 259.598 242.046 259.661 242.046H260.653C260.715 242.046 260.76 242.096 260.76 242.159V250.16Z" fill="#FFFFFE"/>
</g>
<g clip-path="url(#clip7_1_65)">
<path d="M17.2796 197.99H2.62113C1.65218 197.99 0.732922 197.48 0.285715 196.609C-0.223603 195.614 -0.0372671 194.42 0.74534 193.637L10.9441 183.425H3.63976C1.62733 183.425 0 181.796 0 179.781H13.5031C14.4721 179.781 15.3913 180.291 15.8385 181.161C16.3479 182.156 16.1615 183.35 15.3789 184.134L5.18014 194.346H13.6398C15.6522 194.346 17.2796 195.975 17.2796 197.99ZM75.2923 179.507C73.193 179.507 71.3044 180.415 70.0124 181.87C68.7084 180.415 66.82 179.507 64.7332 179.507C60.8323 179.507 57.6524 182.84 57.6524 186.734V197.99C59.6647 197.99 61.292 196.361 61.292 194.346V186.696C61.292 184.818 62.7455 183.226 64.6088 183.151C66.5717 183.077 68.199 184.656 68.199 186.609V194.346C68.199 196.361 69.8262 197.99 71.8386 197.99V186.696C71.8386 184.818 73.2922 183.226 75.1552 183.151C77.1181 183.077 78.7456 184.656 78.7456 186.609V194.346C78.7456 196.361 80.3731 197.99 82.3849 197.99V186.734C82.3725 182.84 79.1926 179.507 75.2923 179.507ZM35.6398 188.885C35.6398 194.06 31.4411 198.264 26.2733 198.264C21.1057 198.264 16.9069 194.06 16.9069 188.885C16.9069 183.711 21.1181 179.507 26.2733 179.507C31.4287 179.507 35.6398 183.711 35.6398 188.885ZM32.0001 188.885C32.0001 185.726 29.4287 183.151 26.2733 183.151C23.1181 183.151 20.5466 185.726 20.5466 188.885C20.5466 192.045 23.1181 194.619 26.2733 194.619C29.4287 194.619 32.0001 192.045 32.0001 188.885ZM55.8262 188.885C55.8262 194.06 51.6276 198.264 46.46 198.264C41.2918 198.264 37.0932 194.06 37.0932 188.885C37.0932 183.711 41.3047 179.507 46.46 179.507C51.6149 179.507 55.8262 183.711 55.8262 188.885ZM52.1865 188.885C52.1865 185.726 49.6152 183.151 46.46 183.151C43.3046 183.151 40.733 185.726 40.733 188.885C40.733 192.045 43.3046 194.619 46.46 194.619C49.6152 194.619 52.1865 192.045 52.1865 188.885Z" fill="#0B5CFF"/>
</g>
<path d="M119.003 174V203.507H209V174H119.003Z" fill="#E42022"/>
<mask id="mask1_1_65" style="mask-type:luminance" maskUnits="userSpaceOnUse" x="119" y="174" width="90" height="30">
<path d="M119 174V203.507H209V174H119Z" fill="white"/>
</mask>
<g mask="url(#mask1_1_65)">
<path d="M158.209 183.944C156.88 183.944 155.368 184.551 154.444 185.764L154.444 185.762L154.444 185.763L154.444 184.135H151.274V195.491H154.444V189.03C154.444 187.867 155.36 186.63 157.058 186.63C158.37 186.63 159.727 187.528 159.727 189.03V195.491H162.898V188.451C162.898 185.84 160.998 183.944 158.209 183.944Z" fill="white"/>
<path d="M185.432 184.135L182.566 191.872L179.699 184.135H176.078L180.829 195.488H184.303L189.054 184.135H185.432Z" fill="white"/>
<path d="M141.808 187.557C142.348 186.844 143.208 186.425 144.247 186.425C145.39 186.425 146.257 187.067 146.704 188.014L141.165 190.275C141.014 189.115 141.316 188.207 141.808 187.557ZM147.9 192C146.565 192.971 145.803 193.203 144.586 193.203C143.491 193.203 142.634 192.869 142.029 192.283L150.134 188.975C149.958 187.742 149.482 186.642 148.75 185.804C147.685 184.588 146.109 183.944 144.19 183.944C140.703 183.944 138.075 186.474 138.075 189.815C138.075 193.242 140.709 195.685 144.539 195.685C146.684 195.685 148.878 194.685 149.904 193.516L147.9 192Z" fill="white"/>
<path d="M137.772 192.628H130.566V180.739H127.352V195.491H137.772V192.628Z" fill="white"/>
<path d="M194.747 186.616C192.976 186.616 191.691 187.936 191.691 189.814C191.691 191.606 193.052 193.011 194.789 193.011C196.56 193.011 197.845 191.655 197.845 189.814C197.845 188.021 196.484 186.616 194.747 186.616ZM194.747 195.683C191.279 195.683 188.562 193.142 188.562 189.814C188.562 186.523 191.298 183.944 194.789 183.944C198.257 183.944 200.973 186.485 200.973 189.814C200.973 193.105 198.238 195.683 194.747 195.683Z" fill="white"/>
<path d="M170.336 186.616C168.565 186.616 167.28 187.936 167.28 189.814C167.28 191.606 168.642 193.011 170.379 193.011C172.15 193.011 173.435 191.655 173.435 189.814C173.435 188.021 172.074 186.616 170.336 186.616ZM170.336 195.683C166.868 195.683 164.152 193.142 164.152 189.814C164.152 186.523 166.887 183.944 170.379 183.944C173.846 183.944 176.563 186.485 176.563 189.814C176.563 193.105 173.828 195.683 170.336 195.683Z" fill="white"/>
</g>
<g clip-path="url(#clip8_1_65)">
<path d="M257 30.1471H269.159V31.8733H257V30.1471Z" fill="#1F70C1"/>
<path d="M257 26.8361H269.159V28.5684H257V26.8361Z" fill="#1F70C1"/>
<path d="M260.469 23.531H265.684V25.2634H260.469V23.531Z" fill="#1F70C1"/>
<path d="M260.469 20.2261H265.684V21.9584H260.469V20.2261Z" fill="#1F70C1"/>
<path d="M260.469 16.9211H265.684V18.6535H260.469V16.9211Z" fill="#1F70C1"/>
<path d="M260.469 13.61H265.684V15.3424H260.469V13.61Z" fill="#1F70C1"/>
<path d="M269.159 10.3051H257V12.0374H269.159V10.3051Z" fill="#1F70C1"/>
<path d="M269.159 7H257V8.73236H269.159V7Z" fill="#1F70C1"/>
<path d="M270.613 28.5684H289.313C289.629 28.034 289.864 27.4504 290.007 26.8361H270.613V28.5684Z" fill="#1F70C1"/>
<path d="M287.857 20.2261H274.088V21.9584H289.313C288.916 21.295 288.427 20.7114 287.857 20.2261Z" fill="#1F70C1"/>
<path d="M274.088 16.9212V18.6535H287.857C288.44 18.1682 288.929 17.5846 289.313 16.9212H274.088Z" fill="#1F70C1"/>
<path d="M289.313 10.3051H270.613V12.0374H290.007C289.846 11.4231 289.61 10.8396 289.313 10.3051Z" fill="#1F70C1"/>
<path d="M283.565 7.00002H270.613V8.73237H288.031C286.866 7.66345 285.287 7.00002 283.565 7.00002Z" fill="#1F70C1"/>
<path d="M279.297 13.61H274.088V15.3424H279.297V13.61Z" fill="#1F70C1"/>
<path d="M284.513 15.3424H289.963C290.118 14.7895 290.199 14.2059 290.199 13.61H284.513V15.3424Z" fill="#1F70C1"/>
<path d="M274.088 23.531H279.297V25.2634H274.088V23.531Z" fill="#1F70C1"/>
<path d="M284.513 23.531V25.2634H290.199C290.199 24.6675 290.118 24.0839 289.963 23.531H284.513Z" fill="#1F70C1"/>
<path d="M270.613 31.861L283.565 31.8795C285.299 31.8795 286.866 31.216 288.037 30.1471H270.613V31.861Z" fill="#1F70C1"/>
<path d="M291.653 30.1471H300.337V31.8733H291.653V30.1471Z" fill="#1F70C1"/>
<path d="M291.653 26.8361H300.337V28.5684H291.653V26.8361Z" fill="#1F70C1"/>
<path d="M295.122 23.531H300.337V25.2634H295.122V23.531Z" fill="#1F70C1"/>
<path d="M295.122 20.2261H300.337V21.9584H295.122V20.2261Z" fill="#1F70C1"/>
<path d="M302.753 10.3051H291.653V12.0374H303.353L302.753 10.3051Z" fill="#1F70C1"/>
<path d="M301.601 7.00002H291.653V8.73237H302.201L301.601 7.00002Z" fill="#1F70C1"/>
<path d="M310.755 30.1471H319.446V31.8733H310.755V30.1471Z" fill="#1F70C1"/>
<path d="M310.755 26.8361H319.446V28.5684H310.755V26.8361Z" fill="#1F70C1"/>
<path d="M310.755 23.531H315.971V25.2634H310.755V23.531Z" fill="#1F70C1"/>
<path d="M310.755 20.2261H315.971V21.9584H310.755V20.2261Z" fill="#1F70C1"/>
<path d="M310.755 18.6535H315.971V16.9212H310.755H306.035L305.546 18.3218L305.057 16.9212H300.337H295.122V18.6535H300.337V17.0624L300.888 18.6535H310.204L310.755 17.0624V18.6535Z" fill="#1F70C1"/>
<path d="M315.971 13.61H307.188L306.587 15.3424H315.971V13.61Z" fill="#1F70C1"/>
<path d="M309.498 7.00003L308.897 8.73239H319.445V7.00003H309.498Z" fill="#1F70C1"/>
<path d="M305.546 31.861L306.147 30.1471H304.945L305.546 31.861Z" fill="#1F70C1"/>
<path d="M304.394 28.5684H306.698L307.318 26.8361H303.781L304.394 28.5684Z" fill="#1F70C1"/>
<path d="M303.223 25.2634H307.869L308.482 23.531H302.61L303.223 25.2634Z" fill="#1F70C1"/>
<path d="M302.059 21.9584H309.04L309.634 20.2261H301.458L302.059 21.9584Z" fill="#1F70C1"/>
<path d="M295.122 15.3424H304.506L303.905 13.61H295.122V15.3424Z" fill="#1F70C1"/>
<path d="M307.745 12.0374H319.446V10.3051H308.34L307.745 12.0374Z" fill="#1F70C1"/>
</g>
<g clip-path="url(#clip9_1_65)">
<path d="M275.99 183.836C275.99 184.578 276.069 185.18 276.207 185.622C276.364 186.064 276.561 186.545 276.836 187.067C276.934 187.228 276.974 187.388 276.974 187.529C276.974 187.73 276.856 187.93 276.6 188.131L275.361 188.974C275.184 189.095 275.007 189.155 274.85 189.155C274.653 189.155 274.456 189.055 274.26 188.874C273.985 188.573 273.749 188.252 273.552 187.93C273.355 187.589 273.159 187.208 272.942 186.746C271.408 188.593 269.481 189.516 267.161 189.516C265.509 189.516 264.191 189.034 263.228 188.071C262.264 187.107 261.773 185.823 261.773 184.217C261.773 182.511 262.363 181.126 263.562 180.082C264.762 179.038 266.355 178.516 268.38 178.516C269.049 178.516 269.737 178.576 270.465 178.677C271.192 178.777 271.939 178.938 272.726 179.118V177.653C272.726 176.128 272.411 175.064 271.802 174.441C271.172 173.819 270.111 173.518 268.596 173.518C267.908 173.518 267.2 173.598 266.473 173.779C265.745 173.96 265.037 174.18 264.349 174.461C264.034 174.602 263.798 174.682 263.661 174.722C263.523 174.763 263.425 174.783 263.346 174.783C263.071 174.783 262.933 174.582 262.933 174.16V173.177C262.933 172.856 262.972 172.615 263.071 172.474C263.169 172.334 263.346 172.193 263.621 172.053C264.309 171.691 265.135 171.39 266.099 171.149C267.063 170.889 268.085 170.768 269.167 170.768C271.507 170.768 273.218 171.31 274.319 172.394C275.4 173.478 275.951 175.124 275.951 177.332V183.836H275.99ZM268.006 186.887C268.655 186.887 269.324 186.766 270.032 186.525C270.74 186.284 271.369 185.843 271.9 185.241C272.215 184.859 272.451 184.438 272.569 183.956C272.687 183.474 272.765 182.892 272.765 182.21V181.367C272.195 181.226 271.585 181.106 270.956 181.025C270.327 180.945 269.717 180.905 269.108 180.905C267.79 180.905 266.827 181.166 266.178 181.708C265.529 182.25 265.214 183.013 265.214 184.016C265.214 184.96 265.45 185.662 265.942 186.144C266.414 186.646 267.102 186.887 268.006 186.887ZM283.797 189.055C283.443 189.055 283.207 188.994 283.05 188.854C282.893 188.733 282.755 188.452 282.637 188.071L278.016 172.555C277.898 172.153 277.839 171.892 277.839 171.752C277.839 171.43 277.996 171.25 278.311 171.25H280.238C280.612 171.25 280.867 171.31 281.005 171.451C281.162 171.571 281.28 171.852 281.398 172.233L284.702 185.522L287.77 172.233C287.868 171.832 287.986 171.571 288.143 171.451C288.3 171.33 288.576 171.25 288.93 171.25H290.503C290.877 171.25 291.132 171.31 291.29 171.451C291.447 171.571 291.585 171.852 291.663 172.233L294.77 185.682L298.172 172.233C298.29 171.832 298.428 171.571 298.566 171.451C298.723 171.33 298.978 171.25 299.332 171.25H301.161C301.476 171.25 301.653 171.41 301.653 171.752C301.653 171.852 301.633 171.952 301.614 172.073C301.594 172.193 301.555 172.354 301.476 172.575L296.737 188.091C296.619 188.492 296.481 188.753 296.324 188.874C296.166 188.994 295.911 189.075 295.576 189.075H293.885C293.512 189.075 293.256 189.014 293.099 188.874C292.941 188.733 292.804 188.472 292.725 188.071L289.677 175.124L286.649 188.051C286.55 188.452 286.432 188.713 286.275 188.854C286.118 188.994 285.842 189.055 285.488 189.055H283.797ZM309.066 189.597C308.044 189.597 307.021 189.476 306.038 189.235C305.055 188.994 304.288 188.733 303.777 188.432C303.462 188.252 303.246 188.051 303.167 187.87C303.088 187.69 303.049 187.489 303.049 187.308V186.284C303.049 185.863 303.206 185.662 303.501 185.662C303.619 185.662 303.737 185.682 303.855 185.722C303.973 185.763 304.15 185.843 304.347 185.923C305.016 186.224 305.743 186.465 306.51 186.626C307.297 186.786 308.064 186.867 308.85 186.867C310.089 186.867 311.053 186.646 311.721 186.204C312.39 185.763 312.744 185.12 312.744 184.297C312.744 183.735 312.567 183.274 312.213 182.892C311.859 182.511 311.19 182.17 310.227 181.848L307.375 180.945C305.94 180.483 304.878 179.801 304.229 178.898C303.58 178.014 303.246 177.031 303.246 175.987C303.246 175.144 303.423 174.401 303.777 173.759C304.131 173.117 304.603 172.555 305.193 172.113C305.782 171.651 306.451 171.31 307.238 171.069C308.024 170.828 308.85 170.728 309.715 170.728C310.148 170.728 310.6 170.748 311.033 170.808C311.485 170.868 311.898 170.949 312.311 171.029C312.704 171.129 313.078 171.23 313.432 171.35C313.786 171.471 314.061 171.591 314.258 171.711C314.533 171.872 314.73 172.033 314.848 172.213C314.966 172.374 315.025 172.595 315.025 172.876V173.819C315.025 174.241 314.868 174.461 314.573 174.461C314.415 174.461 314.16 174.381 313.825 174.221C312.704 173.699 311.446 173.438 310.05 173.438C308.929 173.438 308.044 173.618 307.434 174C306.825 174.381 306.51 174.963 306.51 175.786C306.51 176.348 306.707 176.83 307.1 177.211C307.493 177.593 308.221 177.974 309.263 178.315L312.056 179.219C313.471 179.68 314.494 180.323 315.104 181.146C315.713 181.969 316.008 182.912 316.008 183.956C316.008 184.819 315.831 185.602 315.497 186.284C315.143 186.967 314.671 187.569 314.061 188.051C313.452 188.553 312.724 188.914 311.879 189.175C310.994 189.456 310.069 189.597 309.066 189.597Z" fill="#252F3E"/>
<path fill-rule="evenodd" clip-rule="evenodd" d="M312.783 199.352C306.313 204.23 296.914 206.819 288.831 206.819C277.505 206.819 267.299 202.544 259.59 195.438C258.98 194.876 259.531 194.113 260.259 194.554C268.596 199.492 278.881 202.483 289.52 202.483C296.697 202.483 304.583 200.958 311.839 197.826C312.921 197.325 313.845 198.549 312.783 199.352Z" fill="#FF9900"/>
<path fill-rule="evenodd" clip-rule="evenodd" d="M315.477 196.221C314.651 195.137 310.01 195.699 307.906 195.96C307.277 196.04 307.179 195.478 307.749 195.056C311.446 192.407 317.522 193.169 318.23 194.053C318.938 194.956 318.034 201.158 314.573 204.129C314.042 204.591 313.53 204.35 313.766 203.748C314.553 201.761 316.303 197.284 315.477 196.221Z" fill="#FF9900"/>
</g>
<g clip-path="url(#clip10_1_65)">
<path d="M138.859 254.912L139.98 252.319C141.193 253.219 142.803 253.687 144.395 253.687C145.571 253.687 146.313 253.237 146.313 252.553C146.295 250.645 139.275 252.139 139.221 247.351C139.202 244.921 141.374 243.048 144.449 243.048C146.277 243.048 148.104 243.498 149.407 244.525L148.358 247.171C147.163 246.415 145.68 245.875 144.269 245.875C143.31 245.875 142.676 246.325 142.676 246.901C142.694 248.773 149.769 247.747 149.841 252.319C149.841 254.804 147.724 256.55 144.685 256.55C142.459 256.55 140.415 256.028 138.859 254.912ZM181.902 251.383C181.341 252.355 180.292 253.021 179.08 253.021C177.289 253.021 175.841 251.581 175.841 249.799C175.841 248.017 177.289 246.577 179.08 246.577C180.292 246.577 181.341 247.243 181.902 248.215L184.996 246.505C183.838 244.453 181.613 243.048 179.08 243.048C175.335 243.048 172.295 246.073 172.295 249.799C172.295 253.525 175.335 256.55 179.08 256.55C181.631 256.55 183.838 255.164 184.996 253.093L181.902 251.383ZM151.397 237.45H155.269V256.298H151.397V237.45ZM186.516 237.45V256.298H190.388V250.645L194.984 256.298H199.941L194.097 249.583L199.507 243.318H194.767L190.388 248.521V237.45H186.516ZM166.776 251.419C166.216 252.337 165.058 253.021 163.755 253.021C161.964 253.021 160.516 251.581 160.516 249.799C160.516 248.017 161.964 246.577 163.755 246.577C165.058 246.577 166.216 247.297 166.776 248.233V251.419ZM166.776 243.318V244.849C166.143 243.786 164.569 243.048 162.923 243.048C159.521 243.048 156.843 246.037 156.843 249.781C156.843 253.525 159.521 256.55 162.923 256.55C164.569 256.55 166.143 255.812 166.776 254.75V256.28H170.648V243.318H166.776Z" fill="black"/>
<path d="M114.921 251.401C114.921 252.715 113.854 253.778 112.533 253.778C111.212 253.778 110.145 252.715 110.145 251.401C110.145 250.087 111.212 249.025 112.533 249.025H114.921V251.401ZM116.115 251.401C116.115 250.087 117.183 249.025 118.504 249.025C119.825 249.025 120.892 250.087 120.892 251.401V257.342C120.892 258.656 119.825 259.718 118.504 259.718C117.183 259.718 116.115 258.656 116.115 257.342V251.401Z" fill="#E01E5A"/>
<path d="M118.504 241.86C117.183 241.86 116.116 240.798 116.116 239.484C116.116 238.17 117.183 237.108 118.504 237.108C119.825 237.108 120.892 238.17 120.892 239.484V241.86H118.504ZM118.504 243.067C119.825 243.067 120.892 244.129 120.892 245.443C120.892 246.757 119.825 247.819 118.504 247.819H112.515C111.194 247.819 110.127 246.757 110.127 245.443C110.127 244.129 111.194 243.067 112.515 243.067H118.504Z" fill="#36C5F0"/>
<path d="M128.075 245.443C128.075 244.129 129.143 243.066 130.463 243.066C131.784 243.066 132.852 244.129 132.852 245.443C132.852 246.757 131.784 247.819 130.463 247.819H128.075V245.443ZM126.881 245.443C126.881 246.757 125.813 247.819 124.493 247.819C123.172 247.819 122.104 246.757 122.104 245.443V239.484C122.104 238.17 123.172 237.108 124.493 237.108C125.813 237.108 126.881 238.17 126.881 239.484V245.443Z" fill="#2EB67D"/>
<path d="M124.493 254.966C125.813 254.966 126.881 256.028 126.881 257.342C126.881 258.656 125.813 259.718 124.493 259.718C123.172 259.718 122.104 258.656 122.104 257.342V254.966H124.493ZM124.493 253.778C123.172 253.778 122.104 252.715 122.104 251.401C122.104 250.087 123.172 249.025 124.493 249.025H130.482C131.802 249.025 132.87 250.087 132.87 251.401C132.87 252.715 131.802 253.778 130.482 253.778H124.493Z" fill="#ECB22E"/>
</g>
<g clip-path="url(#clip11_1_65)">
<path d="M71.0223 248.535C71.0223 235.562 60.507 225.047 47.5347 225.047C47.181 225.047 46.8291 225.056 46.479 225.072L41.6746 238.277H45.8591C48.3484 238.277 49.6899 240.193 48.8378 242.534L42.9117 258.82L37.9358 258.819L44.2952 241.363H40.5537L34.1944 258.819H29.2168L36.6943 238.277L41.1932 225.914C31.3023 228.681 24.0471 237.76 24.0471 248.535C24.0471 259.629 31.74 268.925 42.0819 271.384L46.4406 259.406H46.4441L54.1334 238.277H63.2982C65.7901 238.277 67.1308 240.193 66.2787 242.534L61.0715 256.838C60.675 257.928 59.4022 258.819 58.2429 258.819H51.637L46.8371 272.011C47.0685 272.018 47.3016 272.022 47.5347 272.022C60.507 272.022 71.0223 261.506 71.0223 248.535Z" fill="#0096D6"/>
<path d="M61.7467 241.351H58.0071L52.7695 255.721H56.5092L61.7467 241.351Z" fill="#0096D6"/>
</g>
<defs>
<clipPath id="clip0_1_65">
<rect width="105.724" height="28.2299" fill="white" transform="translate(0 6)"/>
</clipPath>
<clipPath id="clip1_1_65">
<rect width="75.2797" height="39.854" fill="white" transform="translate(144)"/>
</clipPath>
<clipPath id="clip2_1_65">
<rect width="136.168" height="22.1411" fill="white" transform="translate(7 65)"/>
</clipPath>
<clipPath id="clip3_1_65">
<rect width="116.328" height="27.5692" fill="white" transform="translate(189 65)"/>
</clipPath>
<clipPath id="clip4_1_65">
<rect width="63.6556" height="24.9087" fill="white" transform="translate(225 118)"/>
</clipPath>
<clipPath id="clip5_1_65">
<rect width="137.275" height="29.3369" fill="white" transform="translate(32 116)"/>
</clipPath>
<clipPath id="clip6_1_65">
<rect width="64.7627" height="45.3892" fill="white" transform="translate(239 226)"/>
</clipPath>
<clipPath id="clip7_1_65">
<rect width="83.125" height="19" fill="white" transform="translate(0 179.507)"/>
</clipPath>
<clipPath id="clip8_1_65">
<rect width="62.5349" height="24.8795" fill="white" transform="translate(257 7)"/>
</clipPath>
<clipPath id="clip9_1_65">
<rect width="59.7809" height="36.5328" fill="white" transform="translate(259 170.507)"/>
</clipPath>
<clipPath id="clip10_1_65">
<rect width="90.1041" height="22.8622" fill="white" transform="translate(110 237)"/>
</clipPath>
<clipPath id="clip11_1_65">
<rect width="47.0693" height="47.0693" fill="white" transform="translate(24 225)"/>
</clipPath>
</defs>
</svg>
